<svg width="32" height="32" viewBox="0 0 32 32" xmlns="http://www.w3.org/2000/svg">
  <defs>
    <linearGradient id="shoeGradient" x1="0%" y1="0%" x2="100%" y2="100%">
      <stop offset="0%" style="stop-color:#001F3F;stop-opacity:1" />
      <stop offset="50%" style="stop-color:#002A5C;stop-opacity:1" />
      <stop offset="100%" style="stop-color:#001F3F;stop-opacity:1" />
    </linearGradient>
  </defs>
  
  <!-- Background circle -->
  <circle cx="16" cy="16" r="16" fill="url(#shoeGradient)"/>
  
  <!-- Shoe sole -->
  <path d="M6 20c0-1.5 1-3 2.5-4L14 12c1-1 2.5-1 3.5 0l5.5 4c1.5 1 2.5 2.5 2.5 4v2c0 2-1.5 4-3.5 4H9.5C7.5 26 6 24 6 22v-2z" fill="#FFD700"/>
  
  <!-- Shoe upper -->
  <path d="M10 16c0-1 0.5-2 1.5-2.5L16 12c0.5-0.3 1-0.3 1.5 0l4.5 1.5c1 0.5 1.5 1.5 1.5 2.5v1H10v-1z" fill="#FFFFFF"/>
  
  <!-- Shoe details -->
  <circle cx="12" cy="18" r="1" fill="#001F3F"/>
  <circle cx="16" cy="18" r="1" fill="#001F3F"/>
  <circle cx="20" cy="18" r="1" fill="#001F3F"/>
  
  <!-- Laces -->
  <path d="M14 14 L18 14" stroke="#001F3F" stroke-width="1" stroke-linecap="round"/>
  <path d="M13.5 15.5 L18.5 15.5" stroke="#001F3F" stroke-width="1" stroke-linecap="round"/>
</svg>